<svg width="308" height="315" viewBox="0 0 308 315" fill="none" xmlns="http://www.w3.org/2000/svg">
<g filter="url(#filter0_d_0_572)">
<rect x="70" y="70" width="168" height="175" rx="10" fill="white"/>
<rect x="134" y="86" width="41" height="41" rx="20.5" fill="#FFE7DB"/>
<path d="M149.229 102.4V98.8857C149.229 98.2643 149.475 97.6684 149.915 97.2291C150.354 96.7897 150.95 96.5428 151.571 96.5428H156.257C156.878 96.5428 157.474 96.7897 157.914 97.2291C158.353 97.6684 158.6 98.2643 158.6 98.8857V102.4H162.114C162.736 102.4 163.332 102.647 163.771 103.086C164.21 103.526 164.457 104.121 164.457 104.743V115.286C164.457 115.907 164.21 116.503 163.771 116.942C163.332 117.382 162.736 117.629 162.114 117.629H145.714C145.093 117.629 144.497 117.382 144.058 116.942C143.618 116.503 143.371 115.907 143.371 115.286V104.743C143.371 104.121 143.618 103.526 144.058 103.086C144.497 102.647 145.093 102.4 145.714 102.4H149.229ZM145.714 104.743V115.286H162.114V104.743H158.598V108.257H156.257V104.743H151.571V108.257H149.229V104.743H145.714ZM151.571 102.4H156.257V98.8857H151.571V102.4Z" fill="#F77E23"/>
<path d="M114.657 151.04V165H111.857V151.04H114.657ZM123.563 153.76C124.883 153.76 125.95 154.18 126.763 155.02C127.576 155.847 127.983 157.007 127.983 158.5V165H125.183V158.88C125.183 158 124.963 157.327 124.523 156.86C124.083 156.38 123.483 156.14 122.723 156.14C121.95 156.14 121.336 156.38 120.883 156.86C120.443 157.327 120.223 158 120.223 158.88V165H117.423V153.92H120.223V155.3C120.596 154.82 121.07 154.447 121.643 154.18C122.23 153.9 122.87 153.76 123.563 153.76ZM129.926 159.46C129.926 158.313 130.159 157.313 130.626 156.46C131.092 155.593 131.739 154.927 132.566 154.46C133.392 153.98 134.339 153.74 135.406 153.74C136.779 153.74 137.912 154.087 138.806 154.78C139.712 155.46 140.319 156.42 140.626 157.66H137.606C137.446 157.18 137.172 156.807 136.786 156.54C136.412 156.26 135.946 156.12 135.386 156.12C134.586 156.12 133.952 156.413 133.486 157C133.019 157.573 132.786 158.393 132.786 159.46C132.786 160.513 133.019 161.333 133.486 161.92C133.952 162.493 134.586 162.78 135.386 162.78C136.519 162.78 137.259 162.273 137.606 161.26H140.626C140.319 162.46 139.712 163.413 138.806 164.12C137.899 164.827 136.766 165.18 135.406 165.18C134.339 165.18 133.392 164.947 132.566 164.48C131.739 164 131.092 163.333 130.626 162.48C130.159 161.613 129.926 160.607 129.926 159.46ZM145.477 155.64C145.837 155.053 146.304 154.593 146.877 154.26C147.464 153.927 148.13 153.76 148.877 153.76V156.7H148.137C147.257 156.7 146.59 156.907 146.137 157.32C145.697 157.733 145.477 158.453 145.477 159.48V165H142.677V153.92H145.477V155.64ZM161.063 159.22C161.063 159.62 161.036 159.98 160.983 160.3H152.883C152.949 161.1 153.229 161.727 153.723 162.18C154.216 162.633 154.823 162.86 155.543 162.86C156.583 162.86 157.323 162.413 157.763 161.52H160.783C160.463 162.587 159.849 163.467 158.943 164.16C158.036 164.84 156.923 165.18 155.603 165.18C154.536 165.18 153.576 164.947 152.723 164.48C151.883 164 151.223 163.327 150.743 162.46C150.276 161.593 150.043 160.593 150.043 159.46C150.043 158.313 150.276 157.307 150.743 156.44C151.209 155.573 151.863 154.907 152.703 154.44C153.543 153.973 154.509 153.74 155.603 153.74C156.656 153.74 157.596 153.967 158.423 154.42C159.263 154.873 159.909 155.52 160.363 156.36C160.829 157.187 161.063 158.14 161.063 159.22ZM158.163 158.42C158.149 157.7 157.889 157.127 157.383 156.7C156.876 156.26 156.256 156.04 155.523 156.04C154.829 156.04 154.243 156.253 153.763 156.68C153.296 157.093 153.009 157.673 152.903 158.42H158.163ZM162.387 159.42C162.387 158.3 162.607 157.307 163.047 156.44C163.5 155.573 164.107 154.907 164.867 154.44C165.64 153.973 166.5 153.74 167.447 153.74C168.273 153.74 168.993 153.907 169.607 154.24C170.233 154.573 170.733 154.993 171.107 155.5V153.92H173.927V165H171.107V163.38C170.747 163.9 170.247 164.333 169.607 164.68C168.98 165.013 168.253 165.18 167.427 165.18C166.493 165.18 165.64 164.94 164.867 164.46C164.107 163.98 163.5 163.307 163.047 162.44C162.607 161.56 162.387 160.553 162.387 159.42ZM171.107 159.46C171.107 158.78 170.973 158.2 170.707 157.72C170.44 157.227 170.08 156.853 169.627 156.6C169.173 156.333 168.687 156.2 168.167 156.2C167.647 156.2 167.167 156.327 166.727 156.58C166.287 156.833 165.927 157.207 165.647 157.7C165.38 158.18 165.247 158.753 165.247 159.42C165.247 160.087 165.38 160.673 165.647 161.18C165.927 161.673 166.287 162.053 166.727 162.32C167.18 162.587 167.66 162.72 168.167 162.72C168.687 162.72 169.173 162.593 169.627 162.34C170.08 162.073 170.44 161.7 170.707 161.22C170.973 160.727 171.107 160.14 171.107 159.46ZM180.901 165.18C179.995 165.18 179.181 165.02 178.461 164.7C177.741 164.367 177.168 163.92 176.741 163.36C176.328 162.8 176.101 162.18 176.061 161.5H178.881C178.935 161.927 179.141 162.28 179.501 162.56C179.875 162.84 180.335 162.98 180.881 162.98C181.415 162.98 181.828 162.873 182.121 162.66C182.428 162.447 182.581 162.173 182.581 161.84C182.581 161.48 182.395 161.213 182.021 161.04C181.661 160.853 181.081 160.653 180.281 160.44C179.455 160.24 178.775 160.033 178.241 159.82C177.721 159.607 177.268 159.28 176.881 158.84C176.508 158.4 176.321 157.807 176.321 157.06C176.321 156.447 176.495 155.887 176.841 155.38C177.201 154.873 177.708 154.473 178.361 154.18C179.028 153.887 179.808 153.74 180.701 153.74C182.021 153.74 183.075 154.073 183.861 154.74C184.648 155.393 185.081 156.28 185.161 157.4H182.481C182.441 156.96 182.255 156.613 181.921 156.36C181.601 156.093 181.168 155.96 180.621 155.96C180.115 155.96 179.721 156.053 179.441 156.24C179.175 156.427 179.041 156.687 179.041 157.02C179.041 157.393 179.228 157.68 179.601 157.88C179.975 158.067 180.555 158.26 181.341 158.46C182.141 158.66 182.801 158.867 183.321 159.08C183.841 159.293 184.288 159.627 184.661 160.08C185.048 160.52 185.248 161.107 185.261 161.84C185.261 162.48 185.081 163.053 184.721 163.56C184.375 164.067 183.868 164.467 183.201 164.76C182.548 165.04 181.781 165.18 180.901 165.18ZM197.86 159.22C197.86 159.62 197.833 159.98 197.78 160.3H189.68C189.746 161.1 190.026 161.727 190.52 162.18C191.013 162.633 191.62 162.86 192.34 162.86C193.38 162.86 194.12 162.413 194.56 161.52H197.58C197.26 162.587 196.646 163.467 195.74 164.16C194.833 164.84 193.72 165.18 192.4 165.18C191.333 165.18 190.373 164.947 189.52 164.48C188.68 164 188.02 163.327 187.54 162.46C187.073 161.593 186.84 160.593 186.84 159.46C186.84 158.313 187.073 157.307 187.54 156.44C188.006 155.573 188.66 154.907 189.5 154.44C190.34 153.973 191.306 153.74 192.4 153.74C193.453 153.74 194.393 153.967 195.22 154.42C196.06 154.873 196.706 155.52 197.16 156.36C197.626 157.187 197.86 158.14 197.86 159.22ZM194.96 158.42C194.946 157.7 194.686 157.127 194.18 156.7C193.673 156.26 193.053 156.04 192.32 156.04C191.626 156.04 191.04 156.253 190.56 156.68C190.093 157.093 189.806 157.673 189.7 158.42H194.96Z" fill="#F77E23"/>
<path d="M144.543 186.454L140.457 194.266V199H138.819V194.266L134.715 186.454H136.533L139.629 192.808L142.725 186.454H144.543ZM150.573 199.162C149.649 199.162 148.809 198.952 148.053 198.532C147.309 198.112 146.721 197.518 146.289 196.75C145.869 195.97 145.659 195.07 145.659 194.05C145.659 193.042 145.875 192.154 146.307 191.386C146.751 190.606 147.351 190.012 148.107 189.604C148.863 189.184 149.709 188.974 150.645 188.974C151.581 188.974 152.427 189.184 153.183 189.604C153.939 190.012 154.533 190.6 154.965 191.368C155.409 192.136 155.631 193.03 155.631 194.05C155.631 195.07 155.403 195.97 154.947 196.75C154.503 197.518 153.897 198.112 153.129 198.532C152.361 198.952 151.509 199.162 150.573 199.162ZM150.573 197.722C151.161 197.722 151.713 197.584 152.229 197.308C152.745 197.032 153.159 196.618 153.471 196.066C153.795 195.514 153.957 194.842 153.957 194.05C153.957 193.258 153.801 192.586 153.489 192.034C153.177 191.482 152.769 191.074 152.265 190.81C151.761 190.534 151.215 190.396 150.627 190.396C150.027 190.396 149.475 190.534 148.971 190.81C148.479 191.074 148.083 191.482 147.783 192.034C147.483 192.586 147.333 193.258 147.333 194.05C147.333 194.854 147.477 195.532 147.765 196.084C148.065 196.636 148.461 197.05 148.953 197.326C149.445 197.59 149.985 197.722 150.573 197.722ZM166.532 189.136V199H164.894V197.542C164.582 198.046 164.144 198.442 163.58 198.73C163.028 199.006 162.416 199.144 161.744 199.144C160.976 199.144 160.286 198.988 159.674 198.676C159.062 198.352 158.576 197.872 158.216 197.236C157.868 196.6 157.694 195.826 157.694 194.914V189.136H159.314V194.698C159.314 195.67 159.56 196.42 160.052 196.948C160.544 197.464 161.216 197.722 162.068 197.722C162.944 197.722 163.634 197.452 164.138 196.912C164.642 196.372 164.894 195.586 164.894 194.554V189.136H166.532ZM170.936 190.738C171.224 190.174 171.632 189.736 172.16 189.424C172.7 189.112 173.354 188.956 174.122 188.956V190.648H173.69C171.854 190.648 170.936 191.644 170.936 193.636V199H169.298V189.136H170.936V190.738ZM90.8017 210.454V219.724C90.8017 220.756 90.4837 221.584 89.8477 222.208C89.2117 222.82 88.3717 223.126 87.3277 223.126C86.2717 223.126 85.4257 222.814 84.7897 222.19C84.1537 221.554 83.8357 220.69 83.8357 219.598H85.4737C85.4857 220.21 85.6417 220.708 85.9417 221.092C86.2537 221.476 86.7157 221.668 87.3277 221.668C87.9397 221.668 88.3957 221.488 88.6957 221.128C88.9957 220.756 89.1457 220.288 89.1457 219.724V210.454H90.8017ZM98.3306 223.162C97.4066 223.162 96.5666 222.952 95.8106 222.532C95.0666 222.112 94.4786 221.518 94.0466 220.75C93.6266 219.97 93.4166 219.07 93.4166 218.05C93.4166 217.042 93.6326 216.154 94.0646 215.386C94.5086 214.606 95.1086 214.012 95.8646 213.604C96.6206 213.184 97.4666 212.974 98.4026 212.974C99.3386 212.974 100.185 213.184 100.941 213.604C101.697 214.012 102.291 214.6 102.723 215.368C103.167 216.136 103.389 217.03 103.389 218.05C103.389 219.07 103.161 219.97 102.705 220.75C102.261 221.518 101.655 222.112 100.887 222.532C100.119 222.952 99.2666 223.162 98.3306 223.162ZM98.3306 221.722C98.9186 221.722 99.4706 221.584 99.9866 221.308C100.503 221.032 100.917 220.618 101.229 220.066C101.553 219.514 101.715 218.842 101.715 218.05C101.715 217.258 101.559 216.586 101.247 216.034C100.935 215.482 100.527 215.074 100.023 214.81C99.5186 214.534 98.9726 214.396 98.3846 214.396C97.7846 214.396 97.2326 214.534 96.7286 214.81C96.2366 215.074 95.8406 215.482 95.5406 216.034C95.2406 216.586 95.0906 217.258 95.0906 218.05C95.0906 218.854 95.2346 219.532 95.5226 220.084C95.8226 220.636 96.2186 221.05 96.7106 221.326C97.2026 221.59 97.7426 221.722 98.3306 221.722ZM107.18 214.972C107.516 214.384 108.008 213.904 108.656 213.532C109.304 213.16 110.042 212.974 110.87 212.974C111.758 212.974 112.556 213.184 113.264 213.604C113.972 214.024 114.53 214.618 114.938 215.386C115.346 216.142 115.55 217.024 115.55 218.032C115.55 219.028 115.346 219.916 114.938 220.696C114.53 221.476 113.966 222.082 113.246 222.514C112.538 222.946 111.746 223.162 110.87 223.162C110.018 223.162 109.268 222.976 108.62 222.604C107.984 222.232 107.504 221.758 107.18 221.182V223H105.542V209.68H107.18V214.972ZM113.876 218.032C113.876 217.288 113.726 216.64 113.426 216.088C113.126 215.536 112.718 215.116 112.202 214.828C111.698 214.54 111.14 214.396 110.528 214.396C109.928 214.396 109.37 214.546 108.854 214.846C108.35 215.134 107.942 215.56 107.63 216.124C107.33 216.676 107.18 217.318 107.18 218.05C107.18 218.794 107.33 219.448 107.63 220.012C107.942 220.564 108.35 220.99 108.854 221.29C109.37 221.578 109.928 221.722 110.528 221.722C111.14 221.722 111.698 221.578 112.202 221.29C112.718 220.99 113.126 220.564 113.426 220.012C113.726 219.448 113.876 218.788 113.876 218.032ZM126.807 223.162C125.883 223.162 125.043 222.952 124.287 222.532C123.543 222.112 122.955 221.518 122.523 220.75C122.103 219.97 121.893 219.07 121.893 218.05C121.893 217.042 122.109 216.154 122.541 215.386C122.985 214.606 123.585 214.012 124.341 213.604C125.097 213.184 125.943 212.974 126.879 212.974C127.815 212.974 128.661 213.184 129.417 213.604C130.173 214.012 130.767 214.6 131.199 215.368C131.643 216.136 131.865 217.03 131.865 218.05C131.865 219.07 131.637 219.97 131.181 220.75C130.737 221.518 130.131 222.112 129.363 222.532C128.595 222.952 127.743 223.162 126.807 223.162ZM126.807 221.722C127.395 221.722 127.947 221.584 128.463 221.308C128.979 221.032 129.393 220.618 129.705 220.066C130.029 219.514 130.191 218.842 130.191 218.05C130.191 217.258 130.035 216.586 129.723 216.034C129.411 215.482 129.003 215.074 128.499 214.81C127.995 214.534 127.449 214.396 126.861 214.396C126.261 214.396 125.709 214.534 125.205 214.81C124.713 215.074 124.317 215.482 124.017 216.034C123.717 216.586 123.567 217.258 123.567 218.05C123.567 218.854 123.711 219.532 123.999 220.084C124.299 220.636 124.695 221.05 125.187 221.326C125.679 221.59 126.219 221.722 126.807 221.722ZM135.657 214.954C135.981 214.39 136.461 213.922 137.097 213.55C137.745 213.166 138.495 212.974 139.347 212.974C140.223 212.974 141.015 213.184 141.723 213.604C142.443 214.024 143.007 214.618 143.415 215.386C143.823 216.142 144.027 217.024 144.027 218.032C144.027 219.028 143.823 219.916 143.415 220.696C143.007 221.476 142.443 222.082 141.723 222.514C141.015 222.946 140.223 223.162 139.347 223.162C138.507 223.162 137.763 222.976 137.115 222.604C136.479 222.22 135.993 221.746 135.657 221.182V227.68H134.019V213.136H135.657V214.954ZM142.353 218.032C142.353 217.288 142.203 216.64 141.903 216.088C141.603 215.536 141.195 215.116 140.679 214.828C140.175 214.54 139.617 214.396 139.005 214.396C138.405 214.396 137.847 214.546 137.331 214.846C136.827 215.134 136.419 215.56 136.107 216.124C135.807 216.676 135.657 217.318 135.657 218.05C135.657 218.794 135.807 219.448 136.107 220.012C136.419 220.564 136.827 220.99 137.331 221.29C137.847 221.578 138.405 221.722 139.005 221.722C139.617 221.722 140.175 221.578 140.679 221.29C141.195 220.99 141.603 220.564 141.903 220.012C142.203 219.448 142.353 218.788 142.353 218.032ZM147.821 214.954C148.145 214.39 148.625 213.922 149.261 213.55C149.909 213.166 150.659 212.974 151.511 212.974C152.387 212.974 153.179 213.184 153.887 213.604C154.607 214.024 155.171 214.618 155.579 215.386C155.987 216.142 156.191 217.024 156.191 218.032C156.191 219.028 155.987 219.916 155.579 220.696C155.171 221.476 154.607 222.082 153.887 222.514C153.179 222.946 152.387 223.162 151.511 223.162C150.671 223.162 149.927 222.976 149.279 222.604C148.643 222.22 148.157 221.746 147.821 221.182V227.68H146.183V213.136H147.821V214.954ZM154.517 218.032C154.517 217.288 154.367 216.64 154.067 216.088C153.767 215.536 153.359 215.116 152.843 214.828C152.339 214.54 151.781 214.396 151.169 214.396C150.569 214.396 150.011 214.546 149.495 214.846C148.991 215.134 148.583 215.56 148.271 216.124C147.971 216.676 147.821 217.318 147.821 218.05C147.821 218.794 147.971 219.448 148.271 220.012C148.583 220.564 148.991 220.99 149.495 221.29C150.011 221.578 150.569 221.722 151.169 221.722C151.781 221.722 152.339 221.578 152.843 221.29C153.359 220.99 153.767 220.564 154.067 220.012C154.367 219.448 154.517 218.788 154.517 218.032ZM162.649 223.162C161.725 223.162 160.885 222.952 160.129 222.532C159.385 222.112 158.797 221.518 158.365 220.75C157.945 219.97 157.735 219.07 157.735 218.05C157.735 217.042 157.951 216.154 158.383 215.386C158.827 214.606 159.427 214.012 160.183 213.604C160.939 213.184 161.785 212.974 162.721 212.974C163.657 212.974 164.503 213.184 165.259 213.604C166.015 214.012 166.609 214.6 167.041 215.368C167.485 216.136 167.707 217.03 167.707 218.05C167.707 219.07 167.479 219.97 167.023 220.75C166.579 221.518 165.973 222.112 165.205 222.532C164.437 222.952 163.585 223.162 162.649 223.162ZM162.649 221.722C163.237 221.722 163.789 221.584 164.305 221.308C164.821 221.032 165.235 220.618 165.547 220.066C165.871 219.514 166.033 218.842 166.033 218.05C166.033 217.258 165.877 216.586 165.565 216.034C165.253 215.482 164.845 215.074 164.341 214.81C163.837 214.534 163.291 214.396 162.703 214.396C162.103 214.396 161.551 214.534 161.047 214.81C160.555 215.074 160.159 215.482 159.859 216.034C159.559 216.586 159.409 217.258 159.409 218.05C159.409 218.854 159.553 219.532 159.841 220.084C160.141 220.636 160.537 221.05 161.029 221.326C161.521 221.59 162.061 221.722 162.649 221.722ZM171.499 214.738C171.787 214.174 172.195 213.736 172.723 213.424C173.263 213.112 173.917 212.956 174.685 212.956V214.648H174.253C172.417 214.648 171.499 215.644 171.499 217.636V223H169.861V213.136H171.499V214.738ZM178.573 214.486V220.3C178.573 220.78 178.675 221.122 178.879 221.326C179.083 221.518 179.437 221.614 179.941 221.614H181.147V223H179.671C178.759 223 178.075 222.79 177.619 222.37C177.163 221.95 176.935 221.26 176.935 220.3V214.486H175.657V213.136H176.935V210.652H178.573V213.136H181.147V214.486H178.573ZM191.88 213.136V223H190.242V221.542C189.93 222.046 189.492 222.442 188.928 222.73C188.376 223.006 187.764 223.144 187.092 223.144C186.324 223.144 185.634 222.988 185.022 222.676C184.41 222.352 183.924 221.872 183.564 221.236C183.216 220.6 183.042 219.826 183.042 218.914V213.136H184.662V218.698C184.662 219.67 184.908 220.42 185.4 220.948C185.892 221.464 186.564 221.722 187.416 221.722C188.292 221.722 188.982 221.452 189.486 220.912C189.99 220.372 190.242 219.586 190.242 218.554V213.136H191.88ZM199.452 212.956C200.652 212.956 201.624 213.322 202.368 214.054C203.112 214.774 203.484 215.818 203.484 217.186V223H201.864V217.42C201.864 216.436 201.618 215.686 201.126 215.17C200.634 214.642 199.962 214.378 199.11 214.378C198.246 214.378 197.556 214.648 197.04 215.188C196.536 215.728 196.284 216.514 196.284 217.546V223H194.646V213.136H196.284V214.54C196.608 214.036 197.046 213.646 197.598 213.37C198.162 213.094 198.78 212.956 199.452 212.956ZM207.005 211.534C206.693 211.534 206.429 211.426 206.213 211.21C205.997 210.994 205.889 210.73 205.889 210.418C205.889 210.106 205.997 209.842 206.213 209.626C206.429 209.41 206.693 209.302 207.005 209.302C207.305 209.302 207.557 209.41 207.761 209.626C207.977 209.842 208.085 210.106 208.085 210.418C208.085 210.73 207.977 210.994 207.761 211.21C207.557 211.426 207.305 211.534 207.005 211.534ZM207.797 213.136V223H206.159V213.136H207.797ZM212.587 214.486V220.3C212.587 220.78 212.689 221.122 212.893 221.326C213.097 221.518 213.451 221.614 213.955 221.614H215.161V223H213.685C212.773 223 212.089 222.79 211.633 222.37C211.177 221.95 210.949 221.26 210.949 220.3V214.486H209.671V213.136H210.949V210.652H212.587V213.136H215.161V214.486H212.587ZM225.642 213.136L219.702 227.644H218.01L219.954 222.892L215.976 213.136H217.794L220.89 221.128L223.95 213.136H225.642Z" fill="#333333"/>
<path d="M113 172.5C138.667 171.167 190.9 169.3 194.5 172.5" stroke="#F77E23" stroke-width="2" stroke-linecap="round"/>
</g>
<defs>
<filter id="filter0_d_0_572" x="0.766663" y="0.766663" width="306.467" height="313.467" filterUnits="userSpaceOnUse" color-interpolation-filters="sRGB">
<feFlood flood-opacity="0" result="BackgroundImageFix"/>
<feColorMatrix in="SourceAlpha" type="matrix" values="0 0 0 0 0 0 0 0 0 0 0 0 0 0 0 0 0 0 127 0" result="hardAlpha"/>
<feOffset/>
<feGaussianBlur stdDeviation="34.6167"/>
<feComposite in2="hardAlpha" operator="out"/>
<feColorMatrix type="matrix" values="0 0 0 0 0.4375 0 0 0 0 0.4375 0 0 0 0 0.4375 0 0 0 0.25 0"/>
<feBlend mode="normal" in2="BackgroundImageFix" result="effect1_dropShadow_0_572"/>
<feBlend mode="normal" in="SourceGraphic" in2="effect1_dropShadow_0_572" result="shape"/>
</filter>
</defs>
</svg>
