<svg width="60" height="60" viewBox="0 0 60 60" fill="none" xmlns="http://www.w3.org/2000/svg">
<rect width="60" height="60" rx="30" transform="matrix(-1 0 0 1 60 0)" fill="#F77E23"/>
<path fill-rule="evenodd" clip-rule="evenodd" d="M24.0625 36.25L33.4375 30L24.0625 23.75C23.9394 23.6679 23.8336 23.5624 23.7513 23.4395C23.669 23.3165 23.6117 23.1786 23.5827 23.0335C23.5536 22.8884 23.5535 22.739 23.5822 22.5939C23.6109 22.4487 23.6679 22.3106 23.75 22.1875C23.8321 22.0644 23.9376 21.9587 24.0605 21.8763C24.1835 21.794 24.3214 21.7367 24.4665 21.7077C24.6116 21.6787 24.761 21.6785 24.9062 21.7072C25.0513 21.7359 25.1894 21.7929 25.3125 21.875L35.94 28.96C36.1112 29.0742 36.2516 29.2288 36.3487 29.4103C36.4457 29.5917 36.4965 29.7943 36.4965 30C36.4965 30.2058 36.4457 30.4084 36.3487 30.5898C36.2516 30.7712 36.1112 30.9259 35.94 31.04L25.3125 38.125C25.1894 38.2071 25.0513 38.2641 24.9062 38.2928C24.761 38.3216 24.6116 38.3214 24.4665 38.2924C24.3214 38.2634 24.1835 38.2061 24.0605 38.1237C23.9376 38.0414 23.8321 37.9356 23.75 37.8125C23.6679 37.6894 23.6109 37.5513 23.5822 37.4062C23.5535 37.261 23.5536 37.1116 23.5827 36.9666C23.6117 36.8215 23.669 36.6835 23.7513 36.5606C23.8336 36.4376 23.9394 36.3321 24.0625 36.25Z" fill="white"/>
</svg>

