<svg width="30" height="30" viewBox="0 0 30 30" fill="none" xmlns="http://www.w3.org/2000/svg">
<path d="M13.1784 29.8875C10.5028 29.5407 7.74843 28.3932 5.74218 26.7872C1.2253 23.1835 -0.825009 17.49 0.346866 11.836C0.849366 9.39474 2.15812 6.82599 3.83343 4.97536C5.06755 3.58646 6.55583 2.4463 8.21812 1.6163C10.425 0.497861 12.5344 -0.00463867 15.0244 -0.00463867C16.8112 -0.00463867 18.2475 0.229736 19.8928 0.791299C22.0543 1.53271 24.018 2.75782 25.6342 4.37324C27.2505 5.98865 28.4766 7.95174 29.2191 10.1129C30.0984 12.691 30.2587 15.435 29.6972 18.1547C29.2481 20.3035 28.0903 22.7204 26.6653 24.4679C26.0794 25.1907 24.7312 26.4797 24.0234 27.0019C21.9059 28.5746 19.4155 29.569 16.7972 29.8875C16.0256 29.985 13.9256 29.9804 13.1794 29.8875H13.1784ZM17.2659 28.6332C20.9206 28.0206 24.1823 25.9814 26.3334 22.9641C28.8675 19.4044 29.5462 14.6288 28.1156 10.4644C27.7791 9.48755 26.9437 7.85724 26.3334 6.99755C25.6547 6.03567 23.9747 4.35099 23.0081 3.67224C22.0706 3.00849 20.4741 2.20224 19.3847 1.84599C17.4183 1.19268 15.3302 0.989555 13.2747 1.25162C11.2193 1.51368 9.24895 2.23424 7.50937 3.36005C5.87265 4.43519 4.47357 5.83427 3.39843 7.47099C2.27291 9.20964 1.55249 11.179 1.29042 13.2335C1.02836 15.288 1.23134 17.3752 1.88437 19.3407C2.2453 20.4291 3.05155 22.0313 3.71062 22.9688C4.39405 23.9307 6.07405 25.6154 7.03593 26.2941C7.9003 26.8997 9.52593 27.7341 10.5028 28.0763C12.6771 28.815 15.0001 29.0063 17.2659 28.6332ZM12.0703 23.6035C11.3694 23.4978 10.6969 23.252 10.0931 22.8807C9.55124 22.5338 5.45905 18.525 5.25937 18.1491C5.02968 17.7197 5.42999 16.9379 6.00187 16.6988L6.26999 16.5863L5.44499 15.7463C4.99124 15.2822 4.56093 14.7891 4.49249 14.6522C4.33124 14.34 4.32655 13.6707 4.47749 13.3726C4.54124 13.2507 4.69218 13.0651 4.80937 12.9619C5.00999 12.796 5.02874 12.7369 5.00999 12.3169C4.98562 11.9457 5.01937 11.7994 5.18062 11.521C5.41499 11.1207 5.89874 10.8516 6.37218 10.8469C6.63562 10.8469 6.70405 10.8132 6.81655 10.6172C7.10999 10.1044 7.94905 9.9188 8.58937 10.2319L8.93624 10.3979L9.10687 10.2319C9.34124 10.0172 9.80999 9.82693 10.1175 9.82693C10.7325 9.82693 11.6016 10.5347 11.6016 11.0325C11.6016 11.6279 11.0597 11.731 10.5225 11.2379C10.1662 10.906 9.9853 10.8713 9.83905 11.1057C9.76593 11.2182 9.94124 11.4282 10.9912 12.4875C12.0412 13.5422 12.2316 13.7672 12.2316 13.9669C12.2233 14.12 12.1581 14.2644 12.0488 14.372C11.9396 14.4795 11.7941 14.5423 11.6409 14.5482C11.4506 14.5482 11.1384 14.2744 9.69749 12.8391C8.22749 11.3738 7.95937 11.1394 7.84218 11.2135C7.52437 11.4141 7.63218 11.5604 9.35062 13.2835C10.2834 14.221 11.0503 15.0507 11.0503 15.1294C11.0503 15.2907 10.9041 15.5888 10.7822 15.6666C10.6822 15.7105 10.5734 15.7307 10.4644 15.7257C10.2637 15.7304 9.95624 15.4519 8.32124 13.8216C6.68062 12.1904 6.38718 11.9269 6.26999 12C5.94749 12.2054 6.0553 12.3469 7.92562 14.2266C8.94655 15.2476 9.80062 16.1607 9.82499 16.2582C9.87843 16.4344 9.76124 16.7419 9.60562 16.8488C9.50235 16.8927 9.39054 16.9129 9.27843 16.9079C9.0778 16.9079 8.82468 16.6885 7.47187 15.3357C6.1678 14.0316 5.86499 13.7635 5.69905 13.7785C5.2303 13.8319 5.39624 14.0419 7.8178 16.4691C9.9178 18.5738 10.1859 18.8719 10.1859 19.0913C10.188 19.1718 10.1699 19.2516 10.1332 19.3234C10.0966 19.3951 10.0425 19.4565 9.97593 19.5019C9.59999 19.8 9.45374 19.7316 8.50593 18.8138C8.02218 18.3497 7.52437 17.9007 7.39218 17.8172C7.15312 17.671 6.54749 17.6072 6.43499 17.7244C6.39562 17.7582 7.28905 18.7013 8.4178 19.8188C10.2975 21.6788 10.5122 21.87 11.0644 22.1335C11.5731 22.3868 12.1333 22.5194 12.7016 22.521C13.2698 22.5227 13.8308 22.3933 14.3409 22.1429C15.9178 21.391 16.7925 19.5647 16.3622 17.9091C16.1475 17.0841 15.8784 16.6885 14.7947 15.57C13.545 14.2904 13.2562 13.9388 12.9487 13.3238C12.6066 12.6357 12.4603 11.9663 12.4603 11.131C12.4603 10.2272 12.5531 9.81755 12.9534 8.97286C13.3341 8.16755 14.13 7.32286 14.9166 6.88786C16.4597 6.02817 18.4912 6.1013 19.965 7.06411C20.2584 7.25442 21.3178 8.25099 22.6359 9.5738C24.5944 11.5369 24.8184 11.791 24.8184 12.015C24.8184 12.5476 24.3834 13.1382 23.9006 13.26C23.7197 13.3088 23.7544 13.3575 24.5747 14.1929C25.0528 14.6766 25.4972 15.1988 25.5656 15.3601C25.7953 15.9122 25.6922 16.4485 25.2722 16.8882C25.0575 17.1132 25.0284 17.191 25.0228 17.64C25.0181 18.0357 24.9741 18.2016 24.8175 18.4266C24.6938 18.6097 24.5283 18.7605 24.3345 18.8667C24.1408 18.9728 23.9246 19.0312 23.7037 19.0369C23.4009 19.0369 23.3428 19.066 23.1909 19.2957C22.8487 19.8235 21.96 20.0082 21.3844 19.6669L21.0966 19.4963L20.8912 19.6969C20.4375 20.1319 19.7044 20.1901 19.1484 19.8338C18.6994 19.5507 18.3675 19.1551 18.3675 18.9057C18.3675 18.6863 18.6853 18.3244 18.8803 18.3244C19.0659 18.3244 19.3153 18.4707 19.5984 18.735C19.8816 19.0032 20.1262 19.0032 20.1647 18.7304C20.1844 18.5841 19.95 18.3057 19.0022 17.3532C18.0056 16.3472 17.8153 16.1175 17.8153 15.9225C17.8131 15.8137 17.8332 15.7055 17.8744 15.6047C17.9822 15.4435 18.285 15.331 18.4697 15.3797C18.5672 15.4041 19.3922 16.1663 20.2959 17.0691C21.2044 17.9776 22.0003 18.7191 22.0734 18.7191C22.2741 18.7191 22.4053 18.5185 22.3125 18.3479C22.2684 18.27 21.5016 17.4835 20.6128 16.5947C19.2216 15.2082 18.9966 14.9494 18.9966 14.7441C18.992 14.6336 19.0122 14.5234 19.0556 14.4216C19.1391 14.2997 19.4316 14.1535 19.5975 14.1535C19.6706 14.1535 20.5884 15.0075 21.6384 16.0529C23.5622 17.9672 23.7037 18.0741 23.9044 17.7572C23.9775 17.64 23.7141 17.3419 22.0828 15.706C20.3981 14.0166 20.1741 13.7626 20.1741 13.5432C20.1741 13.3922 20.2425 13.2357 20.3503 13.1382C20.7066 12.8016 20.8144 12.87 22.5478 14.5932C24.1884 16.2291 24.3347 16.336 24.5353 16.0238C24.6084 15.9066 24.2766 15.5457 22.2403 13.5038C20.0231 11.2772 19.8628 11.0963 19.8628 10.8376C19.8628 10.4466 20.0878 10.261 20.5219 10.291C20.5997 10.2957 21.0684 10.6913 21.5522 11.1647C22.0406 11.6382 22.5675 12.0826 22.7241 12.151C23.0316 12.2775 23.3878 12.2972 23.5397 12.1997C23.6859 12.1069 19.6331 8.11786 19.1062 7.83943C18.6545 7.5956 18.1576 7.44681 17.6462 7.40221C17.1348 7.35761 16.6197 7.41814 16.1325 7.58008C15.6454 7.74202 15.1965 8.00194 14.8136 8.34385C14.4307 8.68576 14.1218 9.10241 13.9059 9.56818C13.6519 10.1101 13.6181 10.2713 13.5834 10.9697C13.5544 11.6288 13.5787 11.8341 13.7203 12.2541C13.9744 13.0013 14.1937 13.3088 15.3319 14.4713C16.5628 15.7313 16.7972 16.0191 17.1094 16.6932C17.9887 18.5682 17.6175 20.7366 16.1672 22.1813C15.0637 23.2894 13.56 23.8069 12.0703 23.6026V23.6035Z" fill="#F77E23"/>
</svg>
