<svg width="50" height="50" viewBox="0 0 50 50" fill="none" xmlns="http://www.w3.org/2000/svg">
<rect width="50" height="50" rx="25" fill="#FFE7DB"/>
<path d="M21.25 13.75C19.5924 13.75 18.0027 14.4085 16.8306 15.5806C15.6585 16.7527 15 18.3424 15 20C15 21.6576 15.6585 23.2473 16.8306 24.4194C18.0027 25.5915 19.5924 26.25 21.25 26.25C22.9076 26.25 24.4973 25.5915 25.6694 24.4194C26.8415 23.2473 27.5 21.6576 27.5 20C27.5 18.3424 26.8415 16.7527 25.6694 15.5806C24.4973 14.4085 22.9076 13.75 21.25 13.75ZM17.5 20C17.5 19.0054 17.8951 18.0516 18.5983 17.3483C19.3016 16.6451 20.2554 16.25 21.25 16.25C22.2446 16.25 23.1984 16.6451 23.9017 17.3483C24.6049 18.0516 25 19.0054 25 20C25 20.9946 24.6049 21.9484 23.9017 22.6517C23.1984 23.3549 22.2446 23.75 21.25 23.75C20.2554 23.75 19.3016 23.3549 18.5983 22.6517C17.8951 21.9484 17.5 20.9946 17.5 20ZM31.135 20.2725C30.7835 20.0934 30.3945 20 30 20V17.5C30.7894 17.5001 31.5676 17.687 32.2708 18.0456C32.9741 18.4042 33.5825 18.9242 34.0462 19.563C34.5099 20.2019 34.8157 20.9415 34.9386 21.7212C35.0616 22.501 34.9982 23.2988 34.7536 24.0494C34.5089 24.7999 34.0901 25.4819 33.5313 26.0394C32.9725 26.597 32.2896 27.0144 31.5385 27.2573C30.7874 27.5003 29.9895 27.5619 29.21 27.4372C28.4305 27.3126 27.6916 27.0051 27.0537 26.54L28.5263 24.52C28.805 24.7229 29.1228 24.8659 29.4595 24.9401C29.7962 25.0143 30.1446 25.018 30.4829 24.9511C30.8211 24.8841 31.1418 24.7479 31.4249 24.551C31.7079 24.3542 31.9472 24.1009 32.1277 23.8071C32.3081 23.5132 32.4258 23.1853 32.4734 22.8438C32.521 22.5023 32.4975 22.1547 32.4043 21.8227C32.311 21.4908 32.1501 21.1817 31.9317 20.9149C31.7133 20.6481 31.442 20.4294 31.135 20.2725ZM34.9975 36.25C34.9972 34.9247 34.4705 33.6537 33.5334 32.7166C32.5963 31.7795 31.3253 31.2528 30 31.2525V28.75C31.989 28.7503 33.8965 29.5406 35.3029 30.9471C36.7094 32.3535 37.4997 34.261 37.5 36.25H34.9975ZM30 36.25H27.5C27.5 34.5924 26.8415 33.0027 25.6694 31.8306C24.4973 30.6585 22.9076 30 21.25 30C19.5924 30 18.0027 30.6585 16.8306 31.8306C15.6585 33.0027 15 34.5924 15 36.25H12.5C12.5 33.9294 13.4219 31.7038 15.0628 30.0628C16.7038 28.4219 18.9294 27.5 21.25 27.5C23.5706 27.5 25.7962 28.4219 27.4372 30.0628C29.0781 31.7038 30 33.9294 30 36.25Z" fill="#F77E23"/>
</svg>
