<svg width="194" height="214" viewBox="0 0 194 214" fill="none" xmlns="http://www.w3.org/2000/svg">
<g filter="url(#filter0_d_0_1191)">
<rect x="47" y="47.75" width="114" height="118.75" rx="6.78571" fill="white"/>
<rect x="90.4286" y="58.6072" width="27.8214" height="27.8214" rx="13.9107" fill="#FFE7DB"/>
<g clip-path="url(#clip0_0_1191)">
<path d="M99.9287 69.3478C100.529 69.0968 101.39 68.826 102.228 68.7419C103.13 68.6509 103.896 68.7846 104.339 69.2522V75.8655C103.705 75.5059 102.901 75.4563 102.159 75.531C101.358 75.6124 100.551 75.8438 99.9287 76.0813V69.3478ZM105.018 69.2522C105.462 68.7846 106.227 68.6509 107.13 68.7419C107.967 68.826 108.828 69.0968 109.429 69.3478V76.0813C108.806 75.8438 107.999 75.6117 107.198 75.5317C106.456 75.4563 105.652 75.5052 105.018 75.8655V69.2522ZM104.679 68.6387C104.01 68.064 103.041 67.9785 102.159 68.0667C101.132 68.1705 100.095 68.5227 99.4489 68.8165C99.3897 68.8435 99.3394 68.8869 99.3042 68.9417C99.2689 68.9964 99.2501 69.0601 99.2501 69.1253V76.5895C99.2501 76.6463 99.2644 76.7022 99.2916 76.752C99.3188 76.8018 99.3581 76.844 99.4058 76.8748C99.4535 76.9055 99.5082 76.9237 99.5648 76.9278C99.6215 76.932 99.6782 76.9218 99.7299 76.8983C100.328 76.6269 101.293 76.3005 102.227 76.2062C103.183 76.1098 103.985 76.2652 104.414 76.8013C104.446 76.8409 104.486 76.8729 104.532 76.8948C104.578 76.9168 104.628 76.9282 104.679 76.9282C104.729 76.9282 104.78 76.9168 104.825 76.8948C104.871 76.8729 104.912 76.8409 104.943 76.8013C105.373 76.2652 106.174 76.1098 107.13 76.2062C108.065 76.3005 109.03 76.6269 109.628 76.8983C109.679 76.9218 109.736 76.932 109.793 76.9278C109.849 76.9237 109.904 76.9055 109.952 76.8748C109.999 76.844 110.039 76.8018 110.066 76.752C110.093 76.7022 110.107 76.6463 110.107 76.5895V69.1253C110.107 69.0601 110.088 68.9964 110.053 68.9417C110.018 68.8869 109.968 68.8435 109.908 68.8165C109.262 68.5227 108.226 68.1705 107.198 68.0667C106.316 67.9778 105.347 68.064 104.679 68.6387Z" fill="#F77E23"/>
</g>
<path d="M86.6939 107.214L84.8916 104.12H83.6973V107.214H82.7093V99.6468H85.1522C85.724 99.6468 86.2053 99.7445 86.5962 99.9399C86.9943 100.135 87.291 100.4 87.4864 100.733C87.6819 101.065 87.7796 101.445 87.7796 101.873C87.7796 102.394 87.6276 102.853 87.3236 103.251C87.0268 103.649 86.5781 103.914 85.9773 104.044L87.8773 107.214H86.6939ZM83.6973 103.327H85.1522C85.6878 103.327 86.0895 103.197 86.3573 102.937C86.6251 102.669 86.759 102.314 86.759 101.873C86.759 101.424 86.6251 101.076 86.3573 100.83C86.0967 100.584 85.695 100.461 85.1522 100.461H83.6973V103.327ZM94.7433 104.011C94.7433 104.2 94.7325 104.399 94.7108 104.609H89.9553C89.9915 105.195 90.1906 105.654 90.5525 105.987C90.9216 106.313 91.3668 106.476 91.8879 106.476C92.315 106.476 92.6696 106.378 92.9519 106.183C93.2414 105.98 93.4441 105.712 93.5599 105.379H94.6239C94.4647 105.951 94.1462 106.418 93.6685 106.78C93.1908 107.135 92.5972 107.312 91.8879 107.312C91.3233 107.312 90.8167 107.185 90.3679 106.932C89.9264 106.679 89.579 106.32 89.3256 105.857C89.0723 105.387 88.9456 104.844 88.9456 104.229C88.9456 103.613 89.0687 103.074 89.3148 102.611C89.5609 102.148 89.9047 101.793 90.3462 101.547C90.795 101.293 91.3089 101.167 91.8879 101.167C92.4525 101.167 92.9519 101.29 93.3862 101.536C93.8205 101.782 94.1534 102.122 94.3851 102.557C94.6239 102.984 94.7433 103.469 94.7433 104.011ZM93.7228 103.805C93.7228 103.429 93.6395 103.107 93.4731 102.839C93.3066 102.564 93.0786 102.357 92.7891 102.22C92.5068 102.075 92.1919 102.003 91.8445 102.003C91.3451 102.003 90.918 102.162 90.5633 102.481C90.2159 102.799 90.0169 103.241 89.9662 103.805H93.7228ZM95.6783 104.218C95.6783 103.61 95.8014 103.078 96.0475 102.622C96.2936 102.158 96.6301 101.8 97.0572 101.547C97.4915 101.293 97.9728 101.167 98.5012 101.167C99.0223 101.167 99.4747 101.279 99.8583 101.503C100.242 101.728 100.528 102.01 100.716 102.35V101.265H101.715V107.214H100.716V106.107C100.521 106.454 100.227 106.744 99.8366 106.975C99.453 107.2 99.0042 107.312 98.4903 107.312C97.9619 107.312 97.4842 107.182 97.0572 106.921C96.6301 106.661 96.2936 106.295 96.0475 105.825C95.8014 105.354 95.6783 104.818 95.6783 104.218ZM100.716 104.229C100.716 103.78 100.626 103.389 100.445 103.056C100.264 102.723 100.018 102.47 99.7063 102.296C99.4023 102.115 99.0658 102.025 98.6966 102.025C98.3275 102.025 97.9909 102.111 97.6869 102.285C97.3829 102.459 97.1404 102.712 96.9595 103.045C96.7785 103.378 96.688 103.769 96.688 104.218C96.688 104.674 96.7785 105.072 96.9595 105.412C97.1404 105.745 97.3829 106.002 97.6869 106.183C97.9909 106.357 98.3275 106.443 98.6966 106.443C99.0658 106.443 99.4023 106.357 99.7063 106.183C100.018 106.002 100.264 105.745 100.445 105.412C100.626 105.072 100.716 104.677 100.716 104.229ZM103.015 104.218C103.015 103.61 103.138 103.078 103.385 102.622C103.631 102.158 103.967 101.8 104.394 101.547C104.829 101.293 105.313 101.167 105.849 101.167C106.312 101.167 106.743 101.275 107.141 101.493C107.539 101.702 107.843 101.981 108.053 102.329V99.1799H109.052V107.214H108.053V106.096C107.858 106.451 107.568 106.744 107.185 106.975C106.801 107.2 106.352 107.312 105.838 107.312C105.31 107.312 104.829 107.182 104.394 106.921C103.967 106.661 103.631 106.295 103.385 105.825C103.138 105.354 103.015 104.818 103.015 104.218ZM108.053 104.229C108.053 103.78 107.963 103.389 107.782 103.056C107.601 102.723 107.355 102.47 107.043 102.296C106.739 102.115 106.403 102.025 106.034 102.025C105.665 102.025 105.328 102.111 105.024 102.285C104.72 102.459 104.477 102.712 104.297 103.045C104.116 103.378 104.025 103.769 104.025 104.218C104.025 104.674 104.116 105.072 104.297 105.412C104.477 105.745 104.72 106.002 105.024 106.183C105.328 106.357 105.665 106.443 106.034 106.443C106.403 106.443 106.739 106.357 107.043 106.183C107.355 106.002 107.601 105.745 107.782 105.412C107.963 105.072 108.053 104.677 108.053 104.229ZM116.15 104.011C116.15 104.2 116.139 104.399 116.118 104.609H111.362C111.398 105.195 111.597 105.654 111.959 105.987C112.328 106.313 112.774 106.476 113.295 106.476C113.722 106.476 114.076 106.378 114.359 106.183C114.648 105.98 114.851 105.712 114.967 105.379H116.031C115.871 105.951 115.553 106.418 115.075 106.78C114.598 107.135 114.004 107.312 113.295 107.312C112.73 107.312 112.223 107.185 111.775 106.932C111.333 106.679 110.986 106.32 110.732 105.857C110.479 105.387 110.352 104.844 110.352 104.229C110.352 103.613 110.475 103.074 110.722 102.611C110.968 102.148 111.311 101.793 111.753 101.547C112.202 101.293 112.716 101.167 113.295 101.167C113.859 101.167 114.359 101.29 114.793 101.536C115.227 101.782 115.56 102.122 115.792 102.557C116.031 102.984 116.15 103.469 116.15 104.011ZM115.13 103.805C115.13 103.429 115.046 103.107 114.88 102.839C114.713 102.564 114.485 102.357 114.196 102.22C113.914 102.075 113.599 102.003 113.251 102.003C112.752 102.003 112.325 102.162 111.97 102.481C111.623 102.799 111.424 103.241 111.373 103.805H115.13ZM118.442 102.231C118.616 101.891 118.862 101.626 119.181 101.438C119.506 101.25 119.901 101.156 120.364 101.156V102.177H120.103C118.996 102.177 118.442 102.777 118.442 103.979V107.214H117.454V101.265H118.442V102.231ZM123.611 107.312C123.155 107.312 122.746 107.236 122.384 107.084C122.022 106.925 121.736 106.708 121.526 106.433C121.316 106.15 121.201 105.828 121.179 105.466H122.199C122.228 105.763 122.366 106.005 122.612 106.194C122.865 106.382 123.195 106.476 123.6 106.476C123.976 106.476 124.273 106.393 124.49 106.226C124.707 106.06 124.816 105.85 124.816 105.597C124.816 105.336 124.7 105.144 124.469 105.021C124.237 104.891 123.879 104.764 123.394 104.641C122.952 104.525 122.59 104.409 122.308 104.294C122.033 104.171 121.794 103.993 121.591 103.762C121.396 103.523 121.298 103.212 121.298 102.828C121.298 102.524 121.389 102.245 121.57 101.992C121.751 101.739 122.008 101.54 122.341 101.395C122.673 101.243 123.053 101.167 123.481 101.167C124.139 101.167 124.671 101.333 125.077 101.666C125.482 101.999 125.699 102.455 125.728 103.034H124.74C124.718 102.723 124.592 102.473 124.36 102.285C124.136 102.097 123.832 102.003 123.448 102.003C123.093 102.003 122.811 102.079 122.601 102.231C122.391 102.383 122.286 102.582 122.286 102.828C122.286 103.023 122.348 103.186 122.471 103.317C122.601 103.44 122.76 103.541 122.949 103.621C123.144 103.693 123.412 103.776 123.752 103.87C124.179 103.986 124.526 104.102 124.794 104.218C125.062 104.326 125.29 104.493 125.478 104.717C125.674 104.941 125.775 105.235 125.782 105.597C125.782 105.922 125.692 106.215 125.511 106.476C125.33 106.737 125.073 106.943 124.74 107.095C124.414 107.24 124.038 107.312 123.611 107.312ZM94.0667 124.218C94.0667 123.61 94.1898 123.078 94.4359 122.622C94.682 122.158 95.0185 121.8 95.4456 121.547C95.8799 121.293 96.3612 121.167 96.8896 121.167C97.4107 121.167 97.8631 121.279 98.2467 121.503C98.6303 121.728 98.9162 122.01 99.1044 122.35V121.265H100.103V127.214H99.1044V126.107C98.909 126.454 98.6159 126.744 98.225 126.975C97.8414 127.2 97.3926 127.312 96.8787 127.312C96.3503 127.312 95.8726 127.182 95.4456 126.921C95.0185 126.661 94.682 126.295 94.4359 125.825C94.1898 125.354 94.0667 124.818 94.0667 124.218ZM99.1044 124.229C99.1044 123.78 99.014 123.389 98.833 123.056C98.6521 122.723 98.406 122.47 98.0947 122.296C97.7907 122.115 97.4541 122.025 97.085 122.025C96.7159 122.025 96.3793 122.111 96.0753 122.285C95.7713 122.459 95.5288 122.712 95.3479 123.045C95.1669 123.378 95.0764 123.769 95.0764 124.218C95.0764 124.674 95.1669 125.072 95.3479 125.412C95.5288 125.745 95.7713 126.002 96.0753 126.183C96.3793 126.357 96.7159 126.443 97.085 126.443C97.4541 126.443 97.7907 126.357 98.0947 126.183C98.406 126.002 98.6521 125.745 98.833 125.412C99.014 125.072 99.1044 124.677 99.1044 124.229ZM102.761 122.231C102.935 121.891 103.181 121.626 103.499 121.438C103.825 121.25 104.219 121.156 104.683 121.156V122.177H104.422C103.315 122.177 102.761 122.777 102.761 123.979V127.214H101.773V121.265H102.761V122.231ZM111.252 124.011C111.252 124.2 111.241 124.399 111.219 124.609H106.464C106.5 125.195 106.699 125.654 107.061 125.987C107.43 126.313 107.875 126.476 108.396 126.476C108.823 126.476 109.178 126.378 109.46 126.183C109.75 125.98 109.952 125.712 110.068 125.379H111.132C110.973 125.951 110.655 126.418 110.177 126.78C109.699 127.135 109.106 127.312 108.396 127.312C107.832 127.312 107.325 127.185 106.876 126.932C106.435 126.679 106.087 126.32 105.834 125.857C105.581 125.387 105.454 124.844 105.454 124.229C105.454 123.613 105.577 123.074 105.823 122.611C106.069 122.148 106.413 121.793 106.855 121.547C107.303 121.293 107.817 121.167 108.396 121.167C108.961 121.167 109.46 121.29 109.895 121.536C110.329 121.782 110.662 122.122 110.893 122.557C111.132 122.984 111.252 123.469 111.252 124.011ZM110.231 123.805C110.231 123.429 110.148 123.107 109.981 122.839C109.815 122.564 109.587 122.357 109.297 122.22C109.015 122.075 108.7 122.003 108.353 122.003C107.853 122.003 107.426 122.162 107.072 122.481C106.724 122.799 106.525 123.241 106.475 123.805H110.231Z" fill="black"/>
<path d="M85.6533 140.18V148.214H84.1333V140.18H85.6533ZM92.7465 145.077C92.7465 145.294 92.732 145.489 92.7031 145.663H88.3059C88.3421 146.097 88.4941 146.437 88.7619 146.683C89.0298 146.929 89.3591 147.053 89.7499 147.053C90.3145 147.053 90.7162 146.81 90.9551 146.325H92.5945C92.4208 146.904 92.0878 147.382 91.5957 147.758C91.1035 148.127 90.4991 148.312 89.7825 148.312C89.2035 148.312 88.6823 148.185 88.2191 147.932C87.7631 147.671 87.4048 147.306 87.1442 146.835C86.8909 146.365 86.7642 145.822 86.7642 145.207C86.7642 144.584 86.8909 144.038 87.1442 143.567C87.3976 143.097 87.7522 142.735 88.2082 142.482C88.6642 142.228 89.189 142.102 89.7825 142.102C90.3543 142.102 90.8646 142.225 91.3134 142.471C91.7694 142.717 92.1204 143.068 92.3665 143.524C92.6199 143.973 92.7465 144.49 92.7465 145.077ZM91.1722 144.642C91.165 144.251 91.0239 143.94 90.7488 143.709C90.4738 143.47 90.1372 143.35 89.7391 143.35C89.3627 143.35 89.0442 143.466 88.7837 143.698C88.5303 143.922 88.3747 144.237 88.3168 144.642H91.1722ZM93.4651 145.185C93.4651 144.577 93.5846 144.038 93.8234 143.567C94.0695 143.097 94.3988 142.735 94.8114 142.482C95.2312 142.228 95.6981 142.102 96.212 142.102C96.6607 142.102 97.0516 142.192 97.3846 142.373C97.7247 142.554 97.9962 142.782 98.1988 143.057V142.199H99.7297V148.214H98.1988V147.335C98.0034 147.617 97.732 147.852 97.3846 148.041C97.0444 148.221 96.6499 148.312 96.2011 148.312C95.6945 148.312 95.2312 148.182 94.8114 147.921C94.3988 147.661 94.0695 147.295 93.8234 146.825C93.5846 146.347 93.4651 145.8 93.4651 145.185ZM98.1988 145.207C98.1988 144.838 98.1265 144.523 97.9817 144.262C97.8369 143.994 97.6415 143.792 97.3954 143.654C97.1493 143.509 96.8851 143.437 96.6028 143.437C96.3206 143.437 96.06 143.506 95.8211 143.643C95.5823 143.781 95.3868 143.984 95.2348 144.251C95.0901 144.512 95.0177 144.823 95.0177 145.185C95.0177 145.547 95.0901 145.865 95.2348 146.141C95.3868 146.408 95.5823 146.615 95.8211 146.759C96.0672 146.904 96.3278 146.977 96.6028 146.977C96.8851 146.977 97.1493 146.908 97.3954 146.77C97.6415 146.625 97.8369 146.423 97.9817 146.162C98.1265 145.894 98.1988 145.576 98.1988 145.207ZM100.823 145.185C100.823 144.577 100.943 144.038 101.182 143.567C101.428 143.097 101.761 142.735 102.181 142.482C102.6 142.228 103.067 142.102 103.581 142.102C103.972 142.102 104.345 142.189 104.699 142.362C105.054 142.529 105.336 142.753 105.546 143.035V140.18H107.088V148.214H105.546V147.324C105.358 147.621 105.094 147.86 104.754 148.041C104.413 148.221 104.019 148.312 103.57 148.312C103.064 148.312 102.6 148.182 102.181 147.921C101.761 147.661 101.428 147.295 101.182 146.825C100.943 146.347 100.823 145.8 100.823 145.185ZM105.557 145.207C105.557 144.838 105.485 144.523 105.34 144.262C105.195 143.994 105 143.792 104.754 143.654C104.508 143.509 104.243 143.437 103.961 143.437C103.679 143.437 103.418 143.506 103.179 143.643C102.941 143.781 102.745 143.984 102.593 144.251C102.448 144.512 102.376 144.823 102.376 145.185C102.376 145.547 102.448 145.865 102.593 146.141C102.745 146.408 102.941 146.615 103.179 146.759C103.425 146.904 103.686 146.977 103.961 146.977C104.243 146.977 104.508 146.908 104.754 146.77C105 146.625 105.195 146.423 105.34 146.162C105.485 145.894 105.557 145.576 105.557 145.207ZM114.164 145.077C114.164 145.294 114.149 145.489 114.12 145.663H109.723C109.76 146.097 109.912 146.437 110.179 146.683C110.447 146.929 110.776 147.053 111.167 147.053C111.732 147.053 112.134 146.81 112.372 146.325H114.012C113.838 146.904 113.505 147.382 113.013 147.758C112.521 148.127 111.916 148.312 111.2 148.312C110.621 148.312 110.1 148.185 109.636 147.932C109.18 147.671 108.822 147.306 108.562 146.835C108.308 146.365 108.182 145.822 108.182 145.207C108.182 144.584 108.308 144.038 108.562 143.567C108.815 143.097 109.17 142.735 109.626 142.482C110.082 142.228 110.606 142.102 111.2 142.102C111.772 142.102 112.282 142.225 112.731 142.471C113.187 142.717 113.538 143.068 113.784 143.524C114.037 143.973 114.164 144.49 114.164 145.077ZM112.59 144.642C112.582 144.251 112.441 143.94 112.166 143.709C111.891 143.47 111.555 143.35 111.156 143.35C110.78 143.35 110.462 143.466 110.201 143.698C109.948 143.922 109.792 144.237 109.734 144.642H112.59ZM116.793 143.133C116.989 142.815 117.242 142.565 117.553 142.384C117.872 142.203 118.234 142.113 118.639 142.113V143.709H118.237C117.76 143.709 117.398 143.821 117.152 144.045C116.913 144.269 116.793 144.66 116.793 145.218V148.214H115.273V142.199H116.793V143.133ZM121.965 148.312C121.472 148.312 121.031 148.225 120.64 148.051C120.249 147.87 119.938 147.628 119.706 147.324C119.482 147.02 119.359 146.683 119.337 146.314H120.868C120.897 146.546 121.009 146.738 121.205 146.89C121.407 147.042 121.657 147.118 121.954 147.118C122.243 147.118 122.468 147.06 122.627 146.944C122.793 146.828 122.877 146.68 122.877 146.499C122.877 146.303 122.775 146.159 122.573 146.065C122.377 145.963 122.062 145.855 121.628 145.739C121.179 145.63 120.81 145.518 120.521 145.402C120.238 145.286 119.992 145.109 119.782 144.87C119.58 144.631 119.478 144.309 119.478 143.904C119.478 143.571 119.572 143.267 119.761 142.992C119.956 142.717 120.231 142.5 120.586 142.341C120.948 142.181 121.371 142.102 121.856 142.102C122.573 142.102 123.144 142.283 123.571 142.645C123.999 142.999 124.234 143.481 124.277 144.089H122.822C122.801 143.85 122.699 143.661 122.518 143.524C122.345 143.379 122.109 143.307 121.813 143.307C121.538 143.307 121.324 143.357 121.172 143.459C121.027 143.56 120.955 143.701 120.955 143.882C120.955 144.085 121.056 144.241 121.259 144.349C121.462 144.45 121.776 144.555 122.203 144.664C122.638 144.773 122.996 144.885 123.278 145.001C123.561 145.116 123.803 145.297 124.006 145.543C124.216 145.782 124.324 146.101 124.331 146.499C124.331 146.846 124.234 147.157 124.038 147.433C123.85 147.708 123.575 147.925 123.213 148.084C122.859 148.236 122.442 148.312 121.965 148.312Z" fill="#F77E23"/>
<path d="M84.3214 153.268C97.2143 152.137 123.407 150.214 125.036 151.571" stroke="#F77E23" stroke-width="1.35714" stroke-linecap="round"/>
</g>
<defs>
<filter id="filter0_d_0_1191" x="0.020237" y="0.770237" width="207.96" height="212.71" filterUnits="userSpaceOnUse" color-interpolation-filters="sRGB">
<feFlood flood-opacity="0" result="BackgroundImageFix"/>
<feColorMatrix in="SourceAlpha" type="matrix" values="0 0 0 0 0 0 0 0 0 0 0 0 0 0 0 0 0 0 127 0" result="hardAlpha"/>
<feOffset/>
<feGaussianBlur stdDeviation="23.4899"/>
<feComposite in2="hardAlpha" operator="out"/>
<feColorMatrix type="matrix" values="0 0 0 0 0.4375 0 0 0 0 0.4375 0 0 0 0 0.4375 0 0 0 0.25 0"/>
<feBlend mode="normal" in2="BackgroundImageFix" result="effect1_dropShadow_0_1191"/>
<feBlend mode="normal" in="SourceGraphic" in2="effect1_dropShadow_0_1191" result="shape"/>
</filter>
<clipPath id="clip0_0_1191">
<rect width="10.8571" height="10.8571" fill="white" transform="translate(99.2501 67.4288)"/>
</clipPath>
</defs>
</svg>
