<svg width="190" height="190" viewBox="0 0 190 190" fill="none" xmlns="http://www.w3.org/2000/svg">
<g filter="url(#filter0_d_0_847)">
<rect x="70" y="70" width="50" height="50" rx="25" fill="#F77E23"/>
<path d="M103.344 95.785L95.5648 86.8202C95.4945 86.7391 95.4076 86.674 95.3099 86.6294C95.2123 86.5848 95.1062 86.5618 94.9988 86.5618C94.8915 86.5618 94.7854 86.5848 94.6877 86.6294C94.5901 86.674 94.5031 86.7391 94.4328 86.8202L86.6563 95.785C86.6328 95.8121 86.6175 95.8453 86.6124 95.8807C86.6072 95.9161 86.6123 95.9523 86.6272 95.9849C86.642 96.0175 86.6659 96.0452 86.6959 96.0646C86.726 96.084 86.7611 96.0944 86.7969 96.0944H88.6953C88.8031 96.0944 88.9063 96.0475 88.9789 95.9655L94.1094 90.0522V103.25C94.1094 103.353 94.1938 103.437 94.2969 103.437H95.7031C95.8063 103.437 95.8906 103.353 95.8906 103.25V90.0522L101.021 95.9655C101.091 96.0475 101.195 96.0944 101.305 96.0944H103.203C103.363 96.0944 103.449 95.9069 103.344 95.785Z" fill="white"/>
</g>
<defs>
<filter id="filter0_d_0_847" x="0.766663" y="0.766663" width="188.467" height="188.467" filterUnits="userSpaceOnUse" color-interpolation-filters="sRGB">
<feFlood flood-opacity="0" result="BackgroundImageFix"/>
<feColorMatrix in="SourceAlpha" type="matrix" values="0 0 0 0 0 0 0 0 0 0 0 0 0 0 0 0 0 0 127 0" result="hardAlpha"/>
<feOffset/>
<feGaussianBlur stdDeviation="34.6167"/>
<feComposite in2="hardAlpha" operator="out"/>
<feColorMatrix type="matrix" values="0 0 0 0 0.4375 0 0 0 0 0.4375 0 0 0 0 0.4375 0 0 0 0.25 0"/>
<feBlend mode="normal" in2="BackgroundImageFix" result="effect1_dropShadow_0_847"/>
<feBlend mode="normal" in="SourceGraphic" in2="effect1_dropShadow_0_847" result="shape"/>
</filter>
</defs>
</svg>
