<svg width="308" height="315" viewBox="0 0 308 315" fill="none" xmlns="http://www.w3.org/2000/svg">
<g filter="url(#filter0_d_0_663)">
<rect x="70" y="70" width="168" height="175" rx="10" fill="white"/>
<rect x="134" y="86" width="41" height="41" rx="20.5" fill="#FFE7DB"/>
<path d="M152 98C150.674 98 149.402 98.5268 148.464 99.4645C147.527 100.402 147 101.674 147 103C147 104.326 147.527 105.598 148.464 106.536C149.402 107.473 150.674 108 152 108C153.326 108 154.598 107.473 155.536 106.536C156.473 105.598 157 104.326 157 103C157 101.674 156.473 100.402 155.536 99.4645C154.598 98.5268 153.326 98 152 98ZM149 103C149 102.204 149.316 101.441 149.879 100.879C150.441 100.316 151.204 100 152 100C152.796 100 153.559 100.316 154.121 100.879C154.684 101.441 155 102.204 155 103C155 103.796 154.684 104.559 154.121 105.121C153.559 105.684 152.796 106 152 106C151.204 106 150.441 105.684 149.879 105.121C149.316 104.559 149 103.796 149 103ZM159.908 103.218C159.627 103.075 159.316 103 159 103V101C159.632 101 160.254 101.15 160.817 101.436C161.379 101.723 161.866 102.139 162.237 102.65C162.608 103.162 162.853 103.753 162.951 104.377C163.049 105.001 162.999 105.639 162.803 106.239C162.607 106.84 162.272 107.385 161.825 107.832C161.378 108.278 160.832 108.611 160.231 108.806C159.63 109 158.992 109.05 158.368 108.95C157.744 108.85 157.153 108.604 156.643 108.232L157.821 106.616C158.044 106.778 158.298 106.893 158.568 106.952C158.837 107.011 159.116 107.014 159.386 106.961C159.657 106.907 159.913 106.798 160.14 106.641C160.366 106.483 160.558 106.281 160.702 106.046C160.846 105.811 160.941 105.548 160.979 105.275C161.017 105.002 160.998 104.724 160.923 104.458C160.849 104.193 160.72 103.945 160.545 103.732C160.371 103.518 160.154 103.344 159.908 103.218ZM162.998 116C162.998 114.94 162.576 113.923 161.827 113.173C161.077 112.424 160.06 112.002 159 112.002V110C160.591 110 162.117 110.632 163.242 111.758C164.368 112.883 165 114.409 165 116H162.998ZM159 116H157C157 114.674 156.473 113.402 155.536 112.464C154.598 111.527 153.326 111 152 111C150.674 111 149.402 111.527 148.464 112.464C147.527 113.402 147 114.674 147 116H145C145 114.143 145.737 112.363 147.05 111.05C148.363 109.737 150.143 109 152 109C153.857 109 155.637 109.737 156.95 111.05C158.263 112.363 159 114.143 159 116Z" fill="#F77E23"/>
<path d="M137.926 151.04C139.393 151.04 140.679 151.327 141.786 151.9C142.906 152.473 143.766 153.293 144.366 154.36C144.979 155.413 145.286 156.64 145.286 158.04C145.286 159.44 144.979 160.667 144.366 161.72C143.766 162.76 142.906 163.567 141.786 164.14C140.679 164.713 139.393 165 137.926 165H133.046V151.04H137.926ZM137.826 162.62C139.293 162.62 140.426 162.22 141.226 161.42C142.026 160.62 142.426 159.493 142.426 158.04C142.426 156.587 142.026 155.453 141.226 154.64C140.426 153.813 139.293 153.4 137.826 153.4H135.846V162.62H137.826ZM157.682 159.22C157.682 159.62 157.655 159.98 157.602 160.3H149.502C149.569 161.1 149.849 161.727 150.342 162.18C150.835 162.633 151.442 162.86 152.162 162.86C153.202 162.86 153.942 162.413 154.382 161.52H157.402C157.082 162.587 156.469 163.467 155.562 164.16C154.655 164.84 153.542 165.18 152.222 165.18C151.155 165.18 150.195 164.947 149.342 164.48C148.502 164 147.842 163.327 147.362 162.46C146.895 161.593 146.662 160.593 146.662 159.46C146.662 158.313 146.895 157.307 147.362 156.44C147.829 155.573 148.482 154.907 149.322 154.44C150.162 153.973 151.129 153.74 152.222 153.74C153.275 153.74 154.215 153.967 155.042 154.42C155.882 154.873 156.529 155.52 156.982 156.36C157.449 157.187 157.682 158.14 157.682 159.22ZM154.782 158.42C154.769 157.7 154.509 157.127 154.002 156.7C153.495 156.26 152.875 156.04 152.142 156.04C151.449 156.04 150.862 156.253 150.382 156.68C149.915 157.093 149.629 157.673 149.522 158.42H154.782ZM165.866 153.76C167.186 153.76 168.252 154.18 169.066 155.02C169.879 155.847 170.286 157.007 170.286 158.5V165H167.486V158.88C167.486 158 167.266 157.327 166.826 156.86C166.386 156.38 165.786 156.14 165.026 156.14C164.252 156.14 163.639 156.38 163.186 156.86C162.746 157.327 162.526 158 162.526 158.88V165H159.726V153.92H162.526V155.3C162.899 154.82 163.372 154.447 163.946 154.18C164.532 153.9 165.172 153.76 165.866 153.76Z" fill="#F77E23"/>
<path d="M148.57 195.162C147.646 195.162 146.806 194.952 146.05 194.532C145.306 194.112 144.718 193.518 144.286 192.75C143.866 191.97 143.656 191.07 143.656 190.05C143.656 189.042 143.872 188.154 144.304 187.386C144.748 186.606 145.348 186.012 146.104 185.604C146.86 185.184 147.706 184.974 148.642 184.974C149.578 184.974 150.424 185.184 151.18 185.604C151.936 186.012 152.53 186.6 152.962 187.368C153.406 188.136 153.628 189.03 153.628 190.05C153.628 191.07 153.4 191.97 152.944 192.75C152.5 193.518 151.894 194.112 151.126 194.532C150.358 194.952 149.506 195.162 148.57 195.162ZM148.57 193.722C149.158 193.722 149.71 193.584 150.226 193.308C150.742 193.032 151.156 192.618 151.468 192.066C151.792 191.514 151.954 190.842 151.954 190.05C151.954 189.258 151.798 188.586 151.486 188.034C151.174 187.482 150.766 187.074 150.262 186.81C149.758 186.534 149.212 186.396 148.624 186.396C148.024 186.396 147.472 186.534 146.968 186.81C146.476 187.074 146.08 187.482 145.78 188.034C145.48 188.586 145.33 189.258 145.33 190.05C145.33 190.854 145.474 191.532 145.762 192.084C146.062 192.636 146.458 193.05 146.95 193.326C147.442 193.59 147.982 193.722 148.57 193.722ZM159.796 186.486H157.726V195H156.088V186.486H154.81V185.136H156.088V184.434C156.088 183.33 156.37 182.526 156.934 182.022C157.51 181.506 158.428 181.248 159.688 181.248V182.616C158.968 182.616 158.458 182.76 158.158 183.048C157.87 183.324 157.726 183.786 157.726 184.434V185.136H159.796V186.486ZM117.387 219.126C116.559 219.126 115.815 218.982 115.155 218.694C114.507 218.394 113.997 217.986 113.625 217.47C113.253 216.942 113.061 216.336 113.049 215.652H114.795C114.855 216.24 115.095 216.738 115.515 217.146C115.947 217.542 116.571 217.74 117.387 217.74C118.167 217.74 118.779 217.548 119.223 217.164C119.679 216.768 119.907 216.264 119.907 215.652C119.907 215.172 119.775 214.782 119.511 214.482C119.247 214.182 118.917 213.954 118.521 213.798C118.125 213.642 117.591 213.474 116.919 213.294C116.091 213.078 115.425 212.862 114.921 212.646C114.429 212.43 114.003 212.094 113.643 211.638C113.295 211.17 113.121 210.546 113.121 209.766C113.121 209.082 113.295 208.476 113.643 207.948C113.991 207.42 114.477 207.012 115.101 206.724C115.737 206.436 116.463 206.292 117.279 206.292C118.455 206.292 119.415 206.586 120.159 207.174C120.915 207.762 121.341 208.542 121.437 209.514H119.637C119.577 209.034 119.325 208.614 118.881 208.254C118.437 207.882 117.849 207.696 117.117 207.696C116.433 207.696 115.875 207.876 115.443 208.236C115.011 208.584 114.795 209.076 114.795 209.712C114.795 210.168 114.921 210.54 115.173 210.828C115.437 211.116 115.755 211.338 116.127 211.494C116.511 211.638 117.045 211.806 117.729 211.998C118.557 212.226 119.223 212.454 119.727 212.682C120.231 212.898 120.663 213.24 121.023 213.708C121.383 214.164 121.563 214.788 121.563 215.58C121.563 216.192 121.401 216.768 121.077 217.308C120.753 217.848 120.273 218.286 119.637 218.622C119.001 218.958 118.251 219.126 117.387 219.126ZM123.362 214.05C123.362 213.03 123.566 212.142 123.974 211.386C124.382 210.618 124.946 210.024 125.666 209.604C126.398 209.184 127.232 208.974 128.168 208.974C129.38 208.974 130.376 209.268 131.156 209.856C131.948 210.444 132.47 211.26 132.722 212.304H130.958C130.79 211.704 130.46 211.23 129.968 210.882C129.488 210.534 128.888 210.36 128.168 210.36C127.232 210.36 126.476 210.684 125.9 211.332C125.324 211.968 125.036 212.874 125.036 214.05C125.036 215.238 125.324 216.156 125.9 216.804C126.476 217.452 127.232 217.776 128.168 217.776C128.888 217.776 129.488 217.608 129.968 217.272C130.448 216.936 130.778 216.456 130.958 215.832H132.722C132.458 216.84 131.93 217.65 131.138 218.262C130.346 218.862 129.356 219.162 128.168 219.162C127.232 219.162 126.398 218.952 125.666 218.532C124.946 218.112 124.382 217.518 123.974 216.75C123.566 215.982 123.362 215.082 123.362 214.05ZM139.803 208.956C140.547 208.956 141.219 209.118 141.819 209.442C142.419 209.754 142.887 210.228 143.223 210.864C143.571 211.5 143.745 212.274 143.745 213.186V219H142.125V213.42C142.125 212.436 141.879 211.686 141.387 211.17C140.895 210.642 140.223 210.378 139.371 210.378C138.507 210.378 137.817 210.648 137.301 211.188C136.797 211.728 136.545 212.514 136.545 213.546V219H134.907V205.68H136.545V210.54C136.869 210.036 137.313 209.646 137.877 209.37C138.453 209.094 139.095 208.956 139.803 208.956ZM150.723 219.162C149.799 219.162 148.959 218.952 148.203 218.532C147.459 218.112 146.871 217.518 146.439 216.75C146.019 215.97 145.809 215.07 145.809 214.05C145.809 213.042 146.025 212.154 146.457 211.386C146.901 210.606 147.501 210.012 148.257 209.604C149.013 209.184 149.859 208.974 150.795 208.974C151.731 208.974 152.577 209.184 153.333 209.604C154.089 210.012 154.683 210.6 155.115 211.368C155.559 212.136 155.781 213.03 155.781 214.05C155.781 215.07 155.553 215.97 155.097 216.75C154.653 217.518 154.047 218.112 153.279 218.532C152.511 218.952 151.659 219.162 150.723 219.162ZM150.723 217.722C151.311 217.722 151.863 217.584 152.379 217.308C152.895 217.032 153.309 216.618 153.621 216.066C153.945 215.514 154.107 214.842 154.107 214.05C154.107 213.258 153.951 212.586 153.639 212.034C153.327 211.482 152.919 211.074 152.415 210.81C151.911 210.534 151.365 210.396 150.777 210.396C150.177 210.396 149.625 210.534 149.121 210.81C148.629 211.074 148.233 211.482 147.933 212.034C147.633 212.586 147.483 213.258 147.483 214.05C147.483 214.854 147.627 215.532 147.915 216.084C148.215 216.636 148.611 217.05 149.103 217.326C149.595 217.59 150.135 217.722 150.723 217.722ZM159.573 210.738C159.861 210.174 160.269 209.736 160.797 209.424C161.337 209.112 161.991 208.956 162.759 208.956V210.648H162.327C160.491 210.648 159.573 211.644 159.573 213.636V219H157.935V209.136H159.573V210.738ZM166.288 205.68V219H164.65V205.68H166.288ZM168.467 214.032C168.467 213.024 168.671 212.142 169.079 211.386C169.487 210.618 170.045 210.024 170.753 209.604C171.473 209.184 172.271 208.974 173.147 208.974C174.011 208.974 174.761 209.16 175.397 209.532C176.033 209.904 176.507 210.372 176.819 210.936V209.136H178.475V219H176.819V217.164C176.495 217.74 176.009 218.22 175.361 218.604C174.725 218.976 173.981 219.162 173.129 219.162C172.253 219.162 171.461 218.946 170.753 218.514C170.045 218.082 169.487 217.476 169.079 216.696C168.671 215.916 168.467 215.028 168.467 214.032ZM176.819 214.05C176.819 213.306 176.669 212.658 176.369 212.106C176.069 211.554 175.661 211.134 175.145 210.846C174.641 210.546 174.083 210.396 173.471 210.396C172.859 210.396 172.301 210.54 171.797 210.828C171.293 211.116 170.891 211.536 170.591 212.088C170.291 212.64 170.141 213.288 170.141 214.032C170.141 214.788 170.291 215.448 170.591 216.012C170.891 216.564 171.293 216.99 171.797 217.29C172.301 217.578 172.859 217.722 173.471 217.722C174.083 217.722 174.641 217.578 175.145 217.29C175.661 216.99 176.069 216.564 176.369 216.012C176.669 215.448 176.819 214.794 176.819 214.05ZM182.881 210.738C183.169 210.174 183.577 209.736 184.105 209.424C184.645 209.112 185.299 208.956 186.067 208.956V210.648H185.635C183.799 210.648 182.881 211.644 182.881 213.636V219H181.243V209.136H182.881V210.738ZM191.45 219.162C190.694 219.162 190.016 219.036 189.416 218.784C188.816 218.52 188.342 218.16 187.994 217.704C187.646 217.236 187.454 216.702 187.418 216.102H189.11C189.158 216.594 189.386 216.996 189.794 217.308C190.214 217.62 190.76 217.776 191.432 217.776C192.056 217.776 192.548 217.638 192.908 217.362C193.268 217.086 193.448 216.738 193.448 216.318C193.448 215.886 193.256 215.568 192.872 215.364C192.488 215.148 191.894 214.938 191.09 214.734C190.358 214.542 189.758 214.35 189.29 214.158C188.834 213.954 188.438 213.66 188.102 213.276C187.778 212.88 187.616 212.364 187.616 211.728C187.616 211.224 187.766 210.762 188.066 210.342C188.366 209.922 188.792 209.592 189.344 209.352C189.896 209.1 190.526 208.974 191.234 208.974C192.326 208.974 193.208 209.25 193.88 209.802C194.552 210.354 194.912 211.11 194.96 212.07H193.322C193.286 211.554 193.076 211.14 192.692 210.828C192.32 210.516 191.816 210.36 191.18 210.36C190.592 210.36 190.124 210.486 189.776 210.738C189.428 210.99 189.254 211.32 189.254 211.728C189.254 212.052 189.356 212.322 189.56 212.538C189.776 212.742 190.04 212.91 190.352 213.042C190.676 213.162 191.12 213.3 191.684 213.456C192.392 213.648 192.968 213.84 193.412 214.032C193.856 214.212 194.234 214.488 194.546 214.86C194.87 215.232 195.038 215.718 195.05 216.318C195.05 216.858 194.9 217.344 194.6 217.776C194.3 218.208 193.874 218.55 193.322 218.802C192.782 219.042 192.158 219.162 191.45 219.162Z" fill="#333333"/>
<path d="M134 173.825C145.167 171.825 167.9 168.425 169.5 170.825" stroke="#F77E23" stroke-width="2" stroke-linecap="round"/>
</g>
<defs>
<filter id="filter0_d_0_663" x="0.766663" y="0.766663" width="306.467" height="313.467" filterUnits="userSpaceOnUse" color-interpolation-filters="sRGB">
<feFlood flood-opacity="0" result="BackgroundImageFix"/>
<feColorMatrix in="SourceAlpha" type="matrix" values="0 0 0 0 0 0 0 0 0 0 0 0 0 0 0 0 0 0 127 0" result="hardAlpha"/>
<feOffset/>
<feGaussianBlur stdDeviation="34.6167"/>
<feComposite in2="hardAlpha" operator="out"/>
<feColorMatrix type="matrix" values="0 0 0 0 0.4375 0 0 0 0 0.4375 0 0 0 0 0.4375 0 0 0 0.25 0"/>
<feBlend mode="normal" in2="BackgroundImageFix" result="effect1_dropShadow_0_663"/>
<feBlend mode="normal" in="SourceGraphic" in2="effect1_dropShadow_0_663" result="shape"/>
</filter>
</defs>
</svg>
