<svg width="20" height="23" viewBox="0 0 20 23" fill="none" xmlns="http://www.w3.org/2000/svg">
<path d="M19.16 16.0558L17.16 14.9058L18.05 14.6658C18.1807 14.6353 18.304 14.5789 18.4124 14.4998C18.5208 14.4207 18.6122 14.3206 18.6811 14.2055C18.7501 14.0903 18.7951 13.9624 18.8136 13.8295C18.8321 13.6966 18.8236 13.5613 18.7887 13.4317C18.7538 13.3021 18.6931 13.1809 18.6104 13.0752C18.5276 12.9696 18.4244 12.8817 18.307 12.8167C18.1895 12.7518 18.0602 12.7112 17.9267 12.6972C17.7932 12.6833 17.6583 12.6964 17.53 12.7358L14.71 13.4958L12 11.9258L14.71 10.3558L17.53 11.1158H17.79C18.0552 11.1503 18.3233 11.078 18.5352 10.9148C18.7471 10.7517 18.8855 10.511 18.92 10.2458C18.9545 9.98056 18.8822 9.71251 18.719 9.5006C18.5559 9.28868 18.3152 9.15026 18.05 9.11578L17.16 8.92578L19.16 7.77578C19.2743 7.71012 19.3745 7.6226 19.4549 7.51821C19.5353 7.41383 19.5944 7.29463 19.6287 7.16741C19.6631 7.04019 19.6721 6.90746 19.6551 6.77678C19.6382 6.6461 19.5957 6.52003 19.53 6.40578C19.4643 6.29153 19.3768 6.19133 19.2724 6.11091C19.1681 6.03048 19.0489 5.9714 18.9216 5.93705C18.7944 5.90269 18.6617 5.89372 18.531 5.91066C18.4003 5.92761 18.2743 5.97012 18.16 6.03578L16 7.29578L16.3 6.18578C16.3393 6.05747 16.3524 5.92255 16.3385 5.78906C16.3246 5.65558 16.284 5.52626 16.2191 5.40881C16.1541 5.29136 16.0662 5.18818 15.9606 5.10543C15.8549 5.02267 15.7337 4.96203 15.6041 4.92712C15.4745 4.8922 15.3392 4.88373 15.2063 4.9022C15.0733 4.92068 14.9455 4.96572 14.8303 5.03465C14.7152 5.10357 14.6151 5.19497 14.536 5.3034C14.4569 5.41183 14.4005 5.53507 14.37 5.66578L13.55 8.66578L11 10.1958V7.06578L13.07 4.99578C13.2563 4.80842 13.3608 4.55497 13.3608 4.29078C13.3608 4.0266 13.2563 3.77314 13.07 3.58578C12.977 3.49205 12.8664 3.41766 12.7446 3.36689C12.6227 3.31612 12.492 3.28998 12.36 3.28998C12.228 3.28998 12.0973 3.31612 11.9754 3.36689C11.8536 3.41766 11.743 3.49205 11.65 3.58578L11 4.23578V1.92578C11 1.66056 10.8946 1.40621 10.7071 1.21867C10.5196 1.03114 10.2652 0.925781 10 0.925781C9.73479 0.925781 9.48044 1.03114 9.2929 1.21867C9.10536 1.40621 9.00001 1.66056 9.00001 1.92578V4.39578L8.19001 3.58578C8.09704 3.49205 7.98644 3.41766 7.86458 3.36689C7.74272 3.31612 7.61202 3.28998 7.48001 3.28998C7.34799 3.28998 7.21729 3.31612 7.09543 3.36689C6.97357 3.41766 6.86297 3.49205 6.77001 3.58578C6.58376 3.77314 6.47921 4.0266 6.47921 4.29078C6.47921 4.55497 6.58376 4.80842 6.77001 4.99578L9.00001 7.22578V10.2258L6.43001 8.70578L5.61001 5.70578C5.57956 5.57507 5.5231 5.45183 5.44402 5.3434C5.36493 5.23497 5.26483 5.14357 5.14968 5.07465C5.03452 5.00572 4.90667 4.96068 4.77374 4.9422C4.64081 4.92373 4.50552 4.9322 4.37594 4.96712C4.24635 5.00203 4.12512 5.06267 4.01946 5.14543C3.91381 5.22818 3.82589 5.33136 3.76095 5.44881C3.69601 5.56626 3.65538 5.69558 3.64147 5.82906C3.62757 5.96255 3.64067 6.09747 3.68001 6.22578L4.00001 7.29578L1.84001 6.05578C1.72576 5.99012 1.59969 5.94761 1.46901 5.93066C1.33833 5.91372 1.20559 5.92269 1.07838 5.95705C0.951161 5.9914 0.831958 6.05048 0.727574 6.13091C0.623189 6.21133 0.535668 6.31153 0.470007 6.42578C0.404346 6.54003 0.361832 6.6661 0.34489 6.79678C0.327949 6.92746 0.336913 7.06019 0.371271 7.18741C0.440659 7.44434 0.609269 7.66317 0.840007 7.79578L2.84001 8.92578L2.00001 9.18578C1.73479 9.22026 1.49413 9.35868 1.33098 9.5706C1.16782 9.78251 1.09553 10.0506 1.13001 10.3158C1.16449 10.581 1.30291 10.8217 1.51482 10.9848C1.72674 11.148 1.99479 11.2203 2.26001 11.1858H2.52001L5.34001 10.4258L8.00001 11.9258L5.29001 13.4958L2.47001 12.7358C2.33769 12.6866 2.19647 12.6661 2.05563 12.6754C1.9148 12.6848 1.77754 12.7239 1.65288 12.7901C1.52822 12.8563 1.41899 12.9481 1.33237 13.0595C1.24575 13.171 1.1837 13.2995 1.1503 13.4366C1.11691 13.5738 1.11292 13.7164 1.1386 13.8552C1.16429 13.994 1.21906 14.1258 1.29933 14.2419C1.37959 14.358 1.48352 14.4558 1.60428 14.5288C1.72505 14.6019 1.85991 14.6486 2.00001 14.6658L2.89001 14.9058L0.890007 16.0558C0.659269 16.1884 0.490659 16.4072 0.421271 16.6642C0.351882 16.9211 0.387399 17.195 0.520007 17.4258C0.652615 17.6565 0.871453 17.8251 1.12838 17.8945C1.3853 17.9639 1.65927 17.9284 1.89001 17.7958L4.00001 16.5558L3.70001 17.6658C3.66037 17.7938 3.64686 17.9285 3.66028 18.0618C3.67371 18.1951 3.71379 18.3244 3.77815 18.4419C3.84252 18.5594 3.92985 18.6628 4.03496 18.746C4.14006 18.8291 4.2608 18.8902 4.39001 18.9258C4.4764 18.9356 4.56362 18.9356 4.65001 18.9258C4.87577 18.9335 5.0975 18.8646 5.27908 18.7302C5.46067 18.5958 5.59141 18.4039 5.65001 18.1858L6.47001 15.1858L9.00001 13.6558V16.7858L6.93001 18.8558C6.74376 19.0431 6.63921 19.2966 6.63921 19.5608C6.63921 19.825 6.74376 20.0784 6.93001 20.2658C7.02262 20.3603 7.13307 20.4354 7.25494 20.4869C7.37682 20.5384 7.5077 20.5652 7.64001 20.5658C7.77231 20.5652 7.9032 20.5384 8.02507 20.4869C8.14695 20.4354 8.25739 20.3603 8.35001 20.2658L9.00001 19.6158V21.9258C9.00001 22.191 9.10536 22.4454 9.2929 22.6329C9.48044 22.8204 9.73479 22.9258 10 22.9258C10.2652 22.9258 10.5196 22.8204 10.7071 22.6329C10.8946 22.4454 11 22.191 11 21.9258V19.4558L11.81 20.2658C11.903 20.3595 12.0136 20.4339 12.1354 20.4847C12.2573 20.5354 12.388 20.5616 12.52 20.5616C12.652 20.5616 12.7827 20.5354 12.9046 20.4847C13.0264 20.4339 13.137 20.3595 13.23 20.2658C13.4163 20.0784 13.5208 19.825 13.5208 19.5608C13.5208 19.2966 13.4163 19.0431 13.23 18.8558L11 16.6258V13.6258L13.57 15.1158L14.39 18.1158C14.4486 18.3339 14.5793 18.5258 14.7609 18.6602C14.9425 18.7946 15.1642 18.8635 15.39 18.8558C15.4764 18.8656 15.5636 18.8656 15.65 18.8558C15.7777 18.8221 15.8974 18.7635 16.0024 18.6834C16.1073 18.6032 16.1953 18.5031 16.2613 18.3887C16.3273 18.2744 16.37 18.1481 16.3869 18.0171C16.4039 17.8862 16.3947 17.7532 16.36 17.6258L16 16.5558L18.14 17.7958C18.2543 17.8614 18.3803 17.904 18.511 17.9209C18.6417 17.9378 18.7744 17.9289 18.9016 17.8945C19.0289 17.8602 19.1481 17.8011 19.2524 17.7207C19.3568 17.6402 19.4443 17.54 19.51 17.4258C19.5757 17.3115 19.6182 17.1855 19.6351 17.0548C19.6521 16.9241 19.6431 16.7914 19.6087 16.6642C19.5744 16.5369 19.5153 16.4177 19.4349 16.3133C19.3545 16.209 19.2543 16.1214 19.14 16.0558H19.16Z" fill="#404040" fill-opacity="0.8"/>
</svg>
